<svg width="39" height="39" viewBox="0 0 39 39" fill="none" xmlns="http://www.w3.org/2000/svg">
<path d="M16.38 2.34C9.04922 2.34 3.12 8.26922 3.12 15.6C3.12 22.9308 9.04922 28.86 16.38 28.86C18.9973 28.86 21.4195 28.0922 23.4731 26.7881L33.0525 36.3675L36.3675 33.0525L26.91 23.6194C28.6102 21.3891 29.64 18.6255 29.64 15.6C29.64 8.26922 23.7108 2.34 16.38 2.34ZM16.38 5.46C21.9954 5.46 26.52 9.98461 26.52 15.6C26.52 21.2154 21.9954 25.74 16.38 25.74C10.7646 25.74 6.24 21.2154 6.24 15.6C6.24 9.98461 10.7646 5.46 16.38 5.46Z" fill="#0080FF"/>
</svg>
