<svg width="55" height="55" viewBox="0 0 55 55" fill="none" xmlns="http://www.w3.org/2000/svg">
<path d="M3.78125 41.4648C3.05078 41.4648 2.49219 40.9062 2.49219 40.1758V7.5625C2.49219 6.83203 3.05078 6.27344 3.78125 6.27344H51.1758C51.9062 6.27344 52.4648 6.83203 52.4648 7.5625V40.1758C52.4648 41.0352 51.8633 41.4648 51.2617 41.4648H3.78125ZM5.07031 39.1016H49.9727V8.9375H5.07031V39.1016Z" fill="#F3F4F5"/>
<path d="M39.4023 35.5781C38.6719 35.5781 38.1133 35.0195 38.1133 34.2891C38.1133 33.5586 38.6719 33 39.4023 33H44.4297C45.1602 33 45.7188 33.5586 45.7188 34.2891C45.7188 35.0195 45.0312 35.5781 44.4297 35.5781H39.4023ZM27.5 47.4805C26.7695 47.4805 26.2109 46.9219 26.2109 46.1914V40.7344C26.2109 40.0039 26.7695 39.4453 27.5 39.4453C28.2305 39.4453 28.7891 40.0039 28.7891 40.7344V46.2773C28.7461 46.9219 28.1875 47.4805 27.5 47.4805Z" fill="#F3F4F5"/>
<path d="M16.9727 48.5977C16.2422 48.5977 15.6836 48.0391 15.6836 47.3086C15.6836 46.5781 16.2422 46.0195 16.9727 46.0195H38.0703C38.8008 46.0195 39.3594 46.5781 39.3594 47.3086C39.3594 48.0391 38.6719 48.5977 38.0703 48.5977H16.9727Z" fill="#F3F4F5"/>
</svg>
