<svg width="33" height="33" viewBox="0 0 33 33" fill="none" xmlns="http://www.w3.org/2000/svg">
<path d="M16.5 14.4375C15.1403 14.4375 13.811 14.0343 12.6805 13.2789C11.5499 12.5234 10.6687 11.4497 10.1483 10.1935C9.62798 8.93721 9.49183 7.55488 9.7571 6.22126C10.0224 4.88764 10.6772 3.66263 11.6386 2.70114C12.6001 1.73966 13.8251 1.08488 15.1588 0.819604C16.4924 0.554331 17.8747 0.690479 19.131 1.21083C20.3872 1.73118 21.4609 2.61237 22.2164 3.74296C22.9718 4.87355 23.375 6.20276 23.375 7.5625C23.375 9.38587 22.6507 11.1345 21.3614 12.4239C20.072 13.7132 18.3234 14.4375 16.5 14.4375ZM16.5 3.4375C15.6842 3.4375 14.8866 3.67943 14.2083 4.13269C13.5299 4.58595 13.0012 5.23019 12.689 5.98393C12.3768 6.73768 12.2951 7.56708 12.4543 8.36725C12.6134 9.16742 13.0063 9.90243 13.5832 10.4793C14.1601 11.0562 14.8951 11.4491 15.6953 11.6082C16.4954 11.7674 17.3248 11.6857 18.0786 11.3735C18.8323 11.0613 19.4766 10.5326 19.9298 9.85423C20.3831 9.17588 20.625 8.37835 20.625 7.5625C20.625 6.46849 20.1904 5.41928 19.4168 4.64569C18.6432 3.8721 17.594 3.4375 16.5 3.4375Z" fill="white"/>
<path d="M28.875 32.3125H4.125C3.76033 32.3125 3.41059 32.1676 3.15273 31.9098C2.89487 31.6519 2.75 31.3022 2.75 30.9375V26.8125C2.75 23.8951 3.90893 21.0972 5.97183 19.0343C8.03473 16.9714 10.8326 15.8125 13.75 15.8125H19.25C22.1674 15.8125 24.9653 16.9714 27.0282 19.0343C29.0911 21.0972 30.25 23.8951 30.25 26.8125V30.9375C30.25 31.3022 30.1051 31.6519 29.8473 31.9098C29.5894 32.1676 29.2397 32.3125 28.875 32.3125ZM5.5 29.5625H27.5V26.8125C27.5 24.6245 26.6308 22.526 25.0836 20.9789C23.5365 19.4317 21.438 18.5625 19.25 18.5625H13.75C11.562 18.5625 9.46354 19.4317 7.91637 20.9789C6.36919 22.526 5.5 24.6245 5.5 26.8125V29.5625Z" fill="white"/>
</svg>
